<svg width="20" height="14" viewBox="0 0 20 14" fill="none" xmlns="http://www.w3.org/2000/svg">
    <path id="&#226;&#128;&#156;"
        d="M0 11.6997V1.57169C0 0.963688 0.416 0.547688 1.248 0.323689C1.664 0.227688 2.08 0.179688 2.496 0.179688C2.944 0.179688 3.504 0.275688 4.176 0.46769C4.848 0.627689 5.264 0.995689 5.424 1.57169L8.304 11.6997C8.304 12.2757 7.616 12.6917 6.24 12.9477C5.568 13.0757 4.88 13.1397 4.176 13.1397C3.472 13.1397 2.768 13.0757 2.064 12.9477C0.688 12.6917 0 12.2757 0 11.6997ZM11.04 11.6997V1.57169C11.04 0.963688 11.456 0.547688 12.288 0.323689C12.704 0.227688 13.12 0.179688 13.536 0.179688C13.984 0.179688 14.544 0.275688 15.216 0.46769C15.888 0.627689 16.304 0.995689 16.464 1.57169L19.344 11.6997C19.344 12.2757 18.656 12.6917 17.28 12.9477C16.608 13.0757 15.92 13.1397 15.216 13.1397C14.512 13.1397 13.808 13.0757 13.104 12.9477C11.728 12.6917 11.04 12.2757 11.04 11.6997Z"
        fill="#0C99FD" />
</svg>